<?xml version="1.0" encoding="UTF-8" standalone="no"?>
<!-- Generator: Adobe Illustrator 15.1.0, SVG Export Plug-In . SVG Version: 6.00 Build 0)  -->

<svg
   version="1.1"
   id="Layer_1"
   x="0px"
   y="0px"
   width="23.68"
   height="16.576"
   viewBox="0 0 23.68 16.576"
   enable-background="new 0 0 512 512"
   xml:space="preserve"
   xmlns="http://www.w3.org/2000/svg"
   xmlns:svg="http://www.w3.org/2000/svg"><defs
   id="defs78">
	
</defs>

<g
   id="g71"
   transform="matrix(0.074,0,0,0.074,-7.104,-9.472)">
		<path
   fill="#1d1d1b"
   d="m 112,160 h 288 c 8.833,0 16,-7.167 16,-16 0,-8.833 -7.167,-16 -16,-16 H 112 c -8.833,0 -16,7.167 -16,16 0,8.833 7.167,16 16,16 z m 288,32 H 112 c -8.833,0 -16,7.167 -16,16 0,8.833 7.167,16 16,16 h 288 c 8.833,0 16,-7.167 16,-16 0,-8.833 -7.167,-16 -16,-16 z m 0,64 H 112 c -8.833,0 -16,7.167 -16,16 0,8.833 7.167,16 16,16 h 288 c 8.833,0 16,-7.167 16,-16 0,-8.833 -7.167,-16 -16,-16 z m 0,64 H 112 c -8.833,0 -16,7.167 -16,16 0,8.833 7.167,16 16,16 h 288 c 8.833,0 16,-7.167 16,-16 0,-8.833 -7.167,-16 -16,-16 z"
   id="path69"
   style="fill:#96969f;fill-opacity:1" />
	</g>
</svg>
